{"asset":{"version":"2.0","generator":"Blockbench 5.0.7 glTF exporter"},"scenes":[{"nodes":[0,1,2,3],"name":"blockbench_export"}],"scene":0,"nodes":[{"name":"mesh","mesh":0},{"rotation":[-0.13052619222005157,0,0,0.9914448613738104],"translation":[0,0.925,0.6875],"name":"plane","mesh":1},{"rotation":[0.13052619222005157,0,0,0.9914448613738104],"translation":[0,0.925,-0.6875],"name":"plane","mesh":2},{"rotation":[0,0,0.13052619222005157,0.9914448613738104],"translation":[0.6875,0.9375,0],"name":"plane","mesh":3}],"bufferViews":[{"buffer":0,"byteOffset":0,"byteLength":516,"target":34962,"byteStride":12},{"buffer":0,"byteOffset":516,"byteLength":516,"target":34962,"byteStride":12},{"buffer":0,"byteOffset":1032,"byteLength":344,"target":34962,"byteStride":8},{"buffer":0,"byteOffset":1376,"byteLength":128,"target":34963},{"buffer":0,"byteOffset":1504,"byteLength":48,"target":34962,"byteStride":12},{"buffer":0,"byteOffset":1552,"byteLength":48,"target":34962,"byteStride":12},{"buffer":0,"byteOffset":1600,"byteLength":32,"target":34962,"byteStride":8},{"buffer":0,"byteOffset":1632,"byteLength":12,"target":34963},{"buffer":0,"byteOffset":1644,"byteLength":48,"target":34962,"byteStride":12},{"buffer":0,"byteOffset":1692,"byteLength":48,"target":34962,"byteStride":12},{"buffer":0,"byteOffset":1740,"byteLength":32,"target":34962,"byteStride":8},{"buffer":0,"byteOffset":1772,"byteLength":12,"target":34963},{"buffer":0,"byteOffset":1784,"byteLength":48,"target":34962,"byteStride":12},{"buffer":0,"byteOffset":1832,"byteLength":48,"target":34962,"byteStride":12},{"buffer":0,"byteOffset":1880,"byteLength":32,"target":34962,"byteStride":8},{"buffer":0,"byteOffset":1912,"byteLength":12,"target":34963}],"buffers":[{"byteLength":1924,"uri":"data:application/octet-stream;base64,"}],"accessors":[{"bufferView":0,"componentType":5126,"count":43,"max":[0.5,0.875,0.5],"min":[-0.5,0,-0.5],"type":"VEC3"},{"bufferView":1,"componentType":5126,"count":43,"max":[1,1,1],"min":[-1,-1,-1],"type":"VEC3"},{"bufferView":2,"componentType":5126,"count":43,"max":[0.8261260986328125,0.953125],"min":[0,0],"type":"VEC2"},{"bufferView":3,"componentType":5123,"count":63,"max":[42],"min":[0],"type":"SCALAR"},{"bufferView":4,"componentType":5126,"count":4,"max":[0.5,0,0.25],"min":[-0.5,0,-0.25],"type":"VEC3"},{"bufferView":5,"componentType":5126,"count":4,"max":[0,1,0],"min":[0,1,0],"type":"VEC3"},{"bufferView":6,"componentType":5126,"count":4,"max":[1,0.5],"min":[0,0],"type":"VEC2"},{"bufferView":7,"componentType":5123,"count":6,"max":[3],"min":[0],"type":"SCALAR"},{"bufferView":8,"componentType":5126,"count":4,"max":[0.5,0,0.25],"min":[-0.5,0,-0.25],"type":"VEC3"},{"bufferView":9,"componentType":5126,"count":4,"max":[0,1,0],"min":[0,1,0],"type":"VEC3"},{"bufferView":10,"componentType":5126,"count":4,"max":[1,0.5041993856430054],"min":[0,0],"type":"VEC2"},{"bufferView":11,"componentType":5123,"count":6,"max":[3],"min":[0],"type":"SCALAR"},{"bufferView":12,"componentType":5126,"count":4,"max":[0.27801498770713806,-0.012074374593794346,0.5],"min":[-0.28448501229286194,-0.012074374593794346,-0.5],"type":"VEC3"},{"bufferView":13,"componentType":5126,"count":4,"max":[0,1,0],"min":[0,1,0],"type":"VEC3"},{"bufferView":14,"componentType":5126,"count":4,"max":[0.5625,1],"min":[0,0],"type":"VEC2"},{"bufferView":15,"componentType":5123,"count":6,"max":[3],"min":[0],"type":"SCALAR"}],"materials":[{"pbrMetallicRoughness":{"metallicFactor":0,"roughnessFactor":1,"baseColorTexture":{"index":0}},"alphaMode":"MASK","alphaCutoff":0.05,"doubleSided":true},{"pbrMetallicRoughness":{"metallicFactor":0,"roughnessFactor":1,"baseColorTexture":{"index":1}},"alphaMode":"MASK","alphaCutoff":0.05,"doubleSided":true},{"pbrMetallicRoughness":{"metallicFactor":0,"roughnessFactor":1,"baseColorTexture":{"index":2}},"alphaMode":"MASK","alphaCutoff":0.05,"doubleSided":true}],"textures":[{"sampler":0,"source":0,"name":"texture"},{"sampler":1,"source":1,"name":"texture"},{"sampler":2,"source":2,"name":"texture"}],"samplers":[{"magFilter":9728,"minFilter":9728,"wrapS":33071,"wrapT":33071},{"magFilter":9728,"minFilter":9728,"wrapS":33071,"wrapT":33071},{"magFilter":9728,"minFilter":9728,"wrapS":33071,"wrapT":33071}],"images":[{"mimeType":"image/png","uri":"data:image/png;base64,"},{"mimeType":"image/png","uri":"data:image/png;base64,"},{"mimeType":"image/png","uri":"data:image/png;base64,"}],"meshes":[{"primitives":[{"mode":4,"attributes":{"POSITION":0,"NORMAL":1,"TEXCOORD_0":2},"indices":3,"material":0}]},{"primitives":[{"mode":4,"attributes":{"POSITION":4,"NORMAL":5,"TEXCOORD_0":6},"indices":7,"material":1}]},{"primitives":[{"mode":4,"attributes":{"POSITION":8,"NORMAL":9,"TEXCOORD_0":10},"indices":11,"material":1}]},{"primitives":[{"mode":4,"attributes":{"POSITION":12,"NORMAL":13,"TEXCOORD_0":14},"indices":15,"material":2}]}]}