{"asset":{"version":"2.0","generator":"Blockbench 5.1.4 glTF exporter"},"scenes":[{"nodes":[9],"name":"blockbench_export"}],"scene":0,"nodes":[{"translation":[0,-0.1875,-0.1875],"name":"mesh","mesh":0},{"translation":[0,-0.0234375,0.09375],"name":"mesh","mesh":1},{"rotation":[-0.25881904510252074,0,0,0.9659258262890683],"translation":[0,0.05412687499999999,-0.03125],"name":"mesh","mesh":2},{"translation":[0,0.10993562500000001,0.40625],"name":"Fangs","children":[2]},{"rotation":[0.6830127018922193,-0.18301270189221933,-0.1830127018922193,0.6830127018922194],"translation":[0.008373124999999981,0.002243749999999989,0],"name":"mesh","mesh":3},{"translation":[0.304126875,0.38056875,0.34375],"name":"Antena 1","children":[4]},{"rotation":[0.6830127018922193,0.18301270189221933,0.1830127018922193,0.6830127018922194],"translation":[-0.008373124999999981,0.06474374999999999,0],"name":"mesh","mesh":4},{"translation":[-0.304126875,0.38056875,0.34375],"name":"Antena_2","children":[6]},{"translation":[0,-0.0390625,0.21875],"name":"Head","children":[1,3,5,7]},{"rotation":[0,-1,0,6.123233995736766e-17],"translation":[0,0.125,0.125],"name":"Body","children":[0,8]}],"bufferViews":[{"buffer":0,"byteOffset":0,"byteLength":288,"target":34962,"byteStride":12},{"buffer":0,"byteOffset":288,"byteLength":288,"target":34962,"byteStride":12},{"buffer":0,"byteOffset":576,"byteLength":192,"target":34962,"byteStride":8},{"buffer":0,"byteOffset":768,"byteLength":72,"target":34963},{"buffer":0,"byteOffset":840,"byteLength":288,"target":34962,"byteStride":12},{"buffer":0,"byteOffset":1128,"byteLength":288,"target":34962,"byteStride":12},{"buffer":0,"byteOffset":1416,"byteLength":192,"target":34962,"byteStride":8},{"buffer":0,"byteOffset":1608,"byteLength":72,"target":34963},{"buffer":0,"byteOffset":1680,"byteLength":576,"target":34962,"byteStride":12},{"buffer":0,"byteOffset":2256,"byteLength":576,"target":34962,"byteStride":12},{"buffer":0,"byteOffset":2832,"byteLength":384,"target":34962,"byteStride":8},{"buffer":0,"byteOffset":3216,"byteLength":144,"target":34963},{"buffer":0,"byteOffset":3360,"byteLength":864,"target":34962,"byteStride":12},{"buffer":0,"byteOffset":4224,"byteLength":864,"target":34962,"byteStride":12},{"buffer":0,"byteOffset":5088,"byteLength":576,"target":34962,"byteStride":8},{"buffer":0,"byteOffset":5664,"byteLength":216,"target":34963},{"buffer":0,"byteOffset":5880,"byteLength":864,"target":34962,"byteStride":12},{"buffer":0,"byteOffset":6744,"byteLength":864,"target":34962,"byteStride":12},{"buffer":0,"byteOffset":7608,"byteLength":576,"target":34962,"byteStride":8},{"buffer":0,"byteOffset":8184,"byteLength":216,"target":34963},{"buffer":0,"byteOffset":8400,"byteLength":20},{"buffer":0,"byteOffset":8420,"byteLength":80},{"buffer":0,"byteOffset":8500,"byteLength":20},{"buffer":0,"byteOffset":8520,"byteLength":80},{"buffer":0,"byteOffset":8600,"byteLength":16},{"buffer":0,"byteOffset":8616,"byteLength":64},{"buffer":0,"byteOffset":8680,"byteLength":20},{"buffer":0,"byteOffset":8700,"byteLength":60},{"buffer":0,"byteOffset":8760,"byteLength":16},{"buffer":0,"byteOffset":8776,"byteLength":64},{"buffer":0,"byteOffset":8840,"byteLength":12},{"buffer":0,"byteOffset":8852,"byteLength":36}],"buffers":[{"byteLength":8888,"uri":"data:application/octet-stream;base64,"}],"accessors":[{"bufferView":0,"componentType":5126,"count":24,"max":[0.25,0.375,0.1875],"min":[-0.25,0.0625,-0.1875],"type":"VEC3"},{"bufferView":1,"componentType":5126,"count":24,"max":[1,1,1],"min":[-1,-1,-1],"type":"VEC3"},{"bufferView":2,"componentType":5126,"count":24,"max":[0.53125,0.484375],"min":[0.328125,0],"type":"VEC2"},{"bufferView":3,"componentType":5123,"count":36,"max":[23],"min":[0],"type":"SCALAR"},{"bufferView":4,"componentType":5126,"count":24,"max":[0.375,0.5,0.3125],"min":[-0.375,-0.0625,-0.3125],"type":"VEC3"},{"bufferView":5,"componentType":5126,"count":24,"max":[1,1,1],"min":[-1,-1,-1],"type":"VEC3"},{"bufferView":6,"componentType":5126,"count":24,"max":[0.328125,0.453125],"min":[0,0],"type":"VEC2"},{"bufferView":7,"componentType":5123,"count":36,"max":[23],"min":[0],"type":"SCALAR"},{"bufferView":8,"componentType":5126,"count":48,"max":[0.09375,0,0.03125],"min":[-0.09375,-0.125,-0.03125],"type":"VEC3"},{"bufferView":9,"componentType":5126,"count":48,"max":[1,1,1],"min":[-1,-1,-1],"type":"VEC3"},{"bufferView":10,"componentType":5126,"count":48,"max":[0.390625,0.546875],"min":[0.328125,0.515625],"type":"VEC2"},{"bufferView":11,"componentType":5123,"count":72,"max":[47],"min":[0],"type":"SCALAR"},{"bufferView":12,"componentType":5126,"count":72,"max":[0.125,0.03125,0.07087312638759613],"min":[-0.0625,-0.03125,-0.42912688851356506],"type":"VEC3"},{"bufferView":13,"componentType":5126,"count":72,"max":[1,1,1],"min":[-1,-1,-1],"type":"VEC3"},{"bufferView":14,"componentType":5126,"count":72,"max":[0.296875,0.640625],"min":[0,0.46875],"type":"VEC2"},{"bufferView":15,"componentType":5123,"count":108,"max":[71],"min":[0],"type":"SCALAR"},{"bufferView":16,"componentType":5126,"count":72,"max":[0.03125,0.03125,0.125],"min":[-0.15625,-0.03125,-0.375],"type":"VEC3"},{"bufferView":17,"componentType":5126,"count":72,"max":[1,1,1],"min":[-1,-1,-1],"type":"VEC3"},{"bufferView":18,"componentType":5126,"count":72,"max":[0.296875,0.640625],"min":[0,0.46875],"type":"VEC2"},{"bufferView":19,"componentType":5123,"count":108,"max":[71],"min":[0],"type":"SCALAR"},{"bufferView":20,"componentType":5126,"count":5,"max":[1],"min":[0],"type":"SCALAR"},{"bufferView":21,"componentType":5126,"count":5,"max":[0,0.08715574443340302,0,1],"min":[0,-0.08715574443340302,0,0.9961947202682495],"type":"VEC4"},{"bufferView":22,"componentType":5126,"count":5,"max":[1],"min":[0],"type":"SCALAR"},{"bufferView":23,"componentType":5126,"count":5,"max":[0,-0.9990482330322266,0,0.04361938685178757],"min":[0,-1,0,-0.04361938685178757],"type":"VEC4"},{"bufferView":24,"componentType":5126,"count":4,"max":[0.5833333134651184],"min":[0],"type":"SCALAR"},{"bufferView":25,"componentType":5126,"count":4,"max":[0,-0.9600498676300049,0,6.123234262925839e-17],"min":[-1.7134584822254164e-17,-1,-0.2798290252685547,5.878609824269817e-17],"type":"VEC4"},{"bufferView":26,"componentType":5126,"count":5,"max":[0.5833333134651184],"min":[0],"type":"SCALAR"},{"bufferView":27,"componentType":5126,"count":5,"max":[0,0.8125,0.125],"min":[0,0.125,-0.125],"type":"VEC3"},{"bufferView":28,"componentType":5126,"count":4,"max":[0.5833333134651184],"min":[0],"type":"SCALAR"},{"bufferView":29,"componentType":5126,"count":4,"max":[0,0,0,1],"min":[-0.3826834261417389,0,0,0.9238795042037964],"type":"VEC4"},{"bufferView":30,"componentType":5126,"count":3,"max":[0.5833333134651184],"min":[0.125],"type":"SCALAR"},{"bufferView":31,"componentType":5126,"count":3,"max":[2.799999952316284,2,1],"min":[1,1,1],"type":"VEC3"}],"materials":[{"pbrMetallicRoughness":{"metallicFactor":0,"roughnessFactor":1,"baseColorTexture":{"index":0}},"alphaMode":"MASK","alphaCutoff":0.05,"doubleSided":true}],"textures":[{"sampler":0,"source":0,"name":"texture_termite.png"}],"samplers":[{"magFilter":9728,"minFilter":9728,"wrapS":33071,"wrapT":33071}],"images":[{"mimeType":"image/png","uri":"data:image/png;base64,"}],"meshes":[{"primitives":[{"mode":4,"attributes":{"POSITION":0,"NORMAL":1,"TEXCOORD_0":2},"indices":3,"material":0}]},{"primitives":[{"mode":4,"attributes":{"POSITION":4,"NORMAL":5,"TEXCOORD_0":6},"indices":7,"material":0}]},{"primitives":[{"mode":4,"attributes":{"POSITION":8,"NORMAL":9,"TEXCOORD_0":10},"indices":11,"material":0}]},{"primitives":[{"mode":4,"attributes":{"POSITION":12,"NORMAL":13,"TEXCOORD_0":14},"indices":15,"material":0}]},{"primitives":[{"mode":4,"attributes":{"POSITION":16,"NORMAL":17,"TEXCOORD_0":18},"indices":19,"material":0}]}],"animations":[{"name":"Walking","samplers":[{"input":20,"output":21,"interpolation":"LINEAR"},{"input":22,"output":23,"interpolation":"LINEAR"}],"channels":[{"sampler":0,"target":{"node":8,"path":"rotation"}},{"sampler":1,"target":{"node":9,"path":"rotation"}}]},{"name":"Attack","samplers":[{"input":24,"output":25,"interpolation":"LINEAR"},{"input":26,"output":27,"interpolation":"LINEAR"},{"input":28,"output":29,"interpolation":"LINEAR"},{"input":30,"output":31,"interpolation":"LINEAR"}],"channels":[{"sampler":0,"target":{"node":9,"path":"rotation"}},{"sampler":1,"target":{"node":9,"path":"translation"}},{"sampler":2,"target":{"node":3,"path":"rotation"}},{"sampler":3,"target":{"node":3,"path":"scale"}}]}]}