{"asset":{"version":"2.0","generator":"Blockbench 5.0.7 glTF exporter"},"scenes":[{"nodes":[0,1,2,3],"name":"blockbench_export"}],"scene":0,"nodes":[{"rotation":[1.889073181175998e-18,-0.7223639620597562,1.889073181175998e-18,0.6915130557822687],"name":"mesh","mesh":0},{"rotation":[1.889073181175998e-18,-0.7223639620597562,1.889073181175998e-18,0.6915130557822687],"translation":[0,0.1875,0],"name":"mesh","mesh":1},{"rotation":[-0.4889735710226738,-0.5107884560572351,-0.510788456057235,0.48897357102267436],"translation":[0.125,0.875,0],"name":"pyramid","mesh":2},{"rotation":[1.889073181175998e-18,-0.7223639620597562,1.889073181175998e-18,0.6915130557822687],"translation":[0,1,0],"name":"mesh","mesh":3}],"bufferViews":[{"buffer":0,"byteOffset":0,"byteLength":288,"target":34962,"byteStride":12},{"buffer":0,"byteOffset":288,"byteLength":288,"target":34962,"byteStride":12},{"buffer":0,"byteOffset":576,"byteLength":192,"target":34962,"byteStride":8},{"buffer":0,"byteOffset":768,"byteLength":72,"target":34963},{"buffer":0,"byteOffset":840,"byteLength":288,"target":34962,"byteStride":12},{"buffer":0,"byteOffset":1128,"byteLength":288,"target":34962,"byteStride":12},{"buffer":0,"byteOffset":1416,"byteLength":192,"target":34962,"byteStride":8},{"buffer":0,"byteOffset":1608,"byteLength":72,"target":34963},{"buffer":0,"byteOffset":1680,"byteLength":192,"target":34962,"byteStride":12},{"buffer":0,"byteOffset":1872,"byteLength":192,"target":34962,"byteStride":12},{"buffer":0,"byteOffset":2064,"byteLength":128,"target":34962,"byteStride":8},{"buffer":0,"byteOffset":2192,"byteLength":36,"target":34963},{"buffer":0,"byteOffset":2228,"byteLength":288,"target":34962,"byteStride":12},{"buffer":0,"byteOffset":2516,"byteLength":288,"target":34962,"byteStride":12},{"buffer":0,"byteOffset":2804,"byteLength":192,"target":34962,"byteStride":8},{"buffer":0,"byteOffset":2996,"byteLength":72,"target":34963}],"buffers":[{"byteLength":3068,"uri":"data:application/octet-stream;base64,"}],"accessors":[{"bufferView":0,"componentType":5126,"count":24,"max":[0.5,0.1875,0.5],"min":[-0.5,0,-0.5],"type":"VEC3"},{"bufferView":1,"componentType":5126,"count":24,"max":[1,1,1],"min":[-1,-1,-1],"type":"VEC3"},{"bufferView":2,"componentType":5126,"count":24,"max":[0.671875,0.515625],"min":[0,0],"type":"VEC2"},{"bufferView":3,"componentType":5123,"count":36,"max":[23],"min":[0],"type":"SCALAR"},{"bufferView":4,"componentType":5126,"count":24,"max":[0.125,0.9375,0.125],"min":[-0.125,0,-0.125],"type":"VEC3"},{"bufferView":5,"componentType":5126,"count":24,"max":[1,1,1],"min":[-1,-1,-1],"type":"VEC3"},{"bufferView":6,"componentType":5126,"count":24,"max":[0.65625,0.640625],"min":[0.265625,0],"type":"VEC2"},{"bufferView":7,"componentType":5123,"count":36,"max":[23],"min":[0],"type":"SCALAR"},{"bufferView":8,"componentType":5126,"count":16,"max":[0.125,0.5,0.125],"min":[-0.125,0,-0.125],"type":"VEC3"},{"bufferView":9,"componentType":5126,"count":16,"max":[0.9701424837112427,0.24253562092781067,0.9701424837112427],"min":[-0.9701424837112427,-1,-0.9701424837112427],"type":"VEC3"},{"bufferView":10,"componentType":5126,"count":16,"max":[0.65625,0.6950823068618774],"min":[0.3446304500102997,0.25],"type":"VEC2"},{"bufferView":11,"componentType":5123,"count":18,"max":[15],"min":[0],"type":"SCALAR"},{"bufferView":12,"componentType":5126,"count":24,"max":[0.1875,0.375,0.1875],"min":[-0.1875,0,-0.1875],"type":"VEC3"},{"bufferView":13,"componentType":5126,"count":24,"max":[1,1,1],"min":[-1,-1,-1],"type":"VEC3"},{"bufferView":14,"componentType":5126,"count":24,"max":[0.515625,0.625],"min":[0,0.25],"type":"VEC2"},{"bufferView":15,"componentType":5123,"count":36,"max":[23],"min":[0],"type":"SCALAR"}],"materials":[{"pbrMetallicRoughness":{"metallicFactor":0,"roughnessFactor":1,"baseColorTexture":{"index":0}},"alphaMode":"MASK","alphaCutoff":0.05,"doubleSided":true}],"textures":[{"sampler":0,"source":0,"name":"texture"}],"samplers":[{"magFilter":9728,"minFilter":9728,"wrapS":33071,"wrapT":33071}],"images":[{"mimeType":"image/png","uri":"data:image/png;base64,"}],"meshes":[{"primitives":[{"mode":4,"attributes":{"POSITION":0,"NORMAL":1,"TEXCOORD_0":2},"indices":3,"material":0}]},{"primitives":[{"mode":4,"attributes":{"POSITION":4,"NORMAL":5,"TEXCOORD_0":6},"indices":7,"material":0}]},{"primitives":[{"mode":4,"attributes":{"POSITION":8,"NORMAL":9,"TEXCOORD_0":10},"indices":11,"material":0}]},{"primitives":[{"mode":4,"attributes":{"POSITION":12,"NORMAL":13,"TEXCOORD_0":14},"indices":15,"material":0}]}]}