# Made in Blockbench 5.0.7
mtllib model.mtl

o mesh
v 0.25 0.3125 -0.125
v 0.25 0.3125 -0.5
v 0.25 0 -0.125
v 0.25 0 -0.5
v -0.25 0.3125 -0.125
v -0.25 0.3125 -0.5
v -0.25 0 -0.125
v -0.25 0 -0.5
vt 0.421875 0.59375
vt 0.328125 0.59375
vt 0.328125 0.515625
vt 0.421875 0.515625
vt 0.53125 0.515625
vt 0.53125 0.59375
vt 0.4375 0.59375
vt 0.4375 0.515625
vt 0.34375 0.90625
vt 0.46875 0.90625
vt 0.46875 1
vt 0.34375 1
vt 0.46875 0.796875
vt 0.46875 0.890625
vt 0.34375 0.890625
vt 0.34375 0.796875
vt 0.46875 0.703125
vt 0.46875 0.78125
vt 0.34375 0.78125
vt 0.34375 0.703125
vt 0.46875 0.6875
vt 0.34375 0.6875
vt 0.34375 0.609375
vt 0.46875 0.609375
vn 1 0 0
vn -1 0 0
vn 0 1 0
vn 0 -1 0
vn 0 0 1
vn 0 0 -1
usemtl m_4b4d6761-702b-8c59-1d68-25688fd76c49
f 2/1/1 1/2/1 3/3/1 4/4/1
f 7/5/2 5/6/2 6/7/2 8/8/2
f 5/9/3 1/10/3 2/11/3 6/12/3
f 4/13/4 3/14/4 7/15/4 8/16/4
f 3/17/5 1/18/5 5/19/5 7/20/5
f 6/21/6 2/22/6 4/23/6 8/24/6
o mesh
v 0.3125 0.4375 0.5
v 0.3125 0.4375 -0.125
v 0.3125 0 0.5
v 0.3125 0 -0.125
v -0.3125 0.4375 -0.125
v -0.3125 0 -0.125
v -0.3125 0.4375 0.5
v -0.3125 0 0.5
vt 0.328125 1
vt 0.171875 1
vt 0.171875 0.890625
vt 0.328125 0.890625
vt 0 0.84375
vt 0.15625 0.84375
vt 0.15625 1
vt 0 1
vt 0.15625 0.671875
vt 0.15625 0.828125
vt 0 0.828125
vt 0 0.671875
vt 0.15625 0.65625
vt 0 0.65625
vt 0 0.546875
vt 0.15625 0.546875
vt 0.328125 0.640625
vt 0.328125 0.75
vt 0.171875 0.75
vt 0.171875 0.640625
vt 0.328125 0.765625
vt 0.328125 0.875
vt 0.171875 0.875
vt 0.171875 0.765625
vn 1 0 0
vn 0 1 0
vn 0 -1 0
vn 0 0 -1
vn 0 0 1
vn -1 0 0
usemtl m_4b4d6761-702b-8c59-1d68-25688fd76c49
f 10/25/7 9/26/7 11/27/7 12/28/7
f 15/29/8 9/30/8 10/31/8 13/32/8
f 12/33/9 11/34/9 16/35/9 14/36/9
f 13/37/10 10/38/10 12/39/10 14/40/10
f 11/41/11 9/42/11 15/43/11 16/44/11
f 16/45/12 15/46/12 13/47/12 14/48/12
o mesh
v 0.2770632938682637 0.34487182452694515 0.46875
v 0.5270632938682637 0.7778845264191645 0.46875
v 0.2770632938682637 0.34487182452694515 0.40625
v 0.5270632938682637 0.7778845264191645 0.40625
v 0.2229367061317363 0.37612182452694515 0.46875
v 0.47293670613173633 0.8091345264191645 0.46875
v 0.2229367061317363 0.37612182452694515 0.40625
v 0.47293670613173633 0.8091345264191645 0.40625
v 0.5499398816047911 0.6925079386826372 0.46875
v 0.5811898816047911 0.7466345264191645 0.46875
v 0.5499398816047911 0.6925079386826372 0.40625
v 0.5811898816047911 0.7466345264191645 0.40625
v 0.49581329386826367 0.7237579386826372 0.46875
v 0.5270632938682637 0.7778845264191645 0.46875
v 0.49581329386826367 0.7237579386826372 0.40625
v 0.5270632938682637 0.7778845264191645 0.40625
v 0.5728164693413185 0.6071313509461097 0.46875
v 0.6040664693413185 0.6612579386826372 0.46875
v 0.5728164693413185 0.6071313509461097 0.40625
v 0.6040664693413185 0.6612579386826372 0.40625
v 0.5186898816047911 0.6383813509461097 0.46875
v 0.5499398816047911 0.6925079386826372 0.46875
v 0.5186898816047911 0.6383813509461097 0.40625
v 0.5499398816047911 0.6925079386826372 0.40625
vt 0.28125 0.359375
vt 0.28125 0.390625
vt 0 0.390625
vt 0 0.359375
vt 0.296875 0.453125
vt 0.296875 0.46875
vt 0.28125 0.46875
vt 0.28125 0.453125
vt 0.140625 0.46875
vt 0.125 0.46875
vt 0.125 0.453125
vt 0.140625 0.453125
vt 0.28125 0.4375
vt 0 0.4375
vt 0 0.40625
vt 0.28125 0.40625
vt 0.0625 0.453125
vt 0.078125 0.453125
vt 0.078125 0.46875
vt 0.0625 0.46875
vt 0.046875 0.453125
vt 0.046875 0.46875
vt 0.03125 0.46875
vt 0.03125 0.453125
vt 0.265625 0.46875
vt 0.25 0.46875
vt 0.25 0.453125
vt 0.265625 0.453125
vt 0.234375 0.453125
vt 0.234375 0.46875
vt 0.21875 0.46875
vt 0.21875 0.453125
vt 0 0.453125
vt 0.015625 0.453125
vt 0.015625 0.46875
vt 0 0.46875
vt 0.109375 0.515625
vt 0.109375 0.53125
vt 0.09375 0.53125
vt 0.09375 0.515625
vt 0.203125 0.453125
vt 0.203125 0.46875
vt 0.1875 0.46875
vt 0.1875 0.453125
vt 0.109375 0.46875
vt 0.09375 0.46875
vt 0.09375 0.453125
vt 0.109375 0.453125
vt 0.046875 0.53125
vt 0.03125 0.53125
vt 0.03125 0.515625
vt 0.046875 0.515625
vt 0.171875 0.453125
vt 0.171875 0.46875
vt 0.15625 0.46875
vt 0.15625 0.453125
vt 0.0625 0.515625
vt 0.078125 0.515625
vt 0.078125 0.53125
vt 0.0625 0.53125
vt 0.015625 0.515625
vt 0.015625 0.53125
vt 0 0.53125
vt 0 0.515625
vt 0.171875 0.515625
vt 0.171875 0.53125
vt 0.15625 0.53125
vt 0.15625 0.515625
vt 0.140625 0.53125
vt 0.125 0.53125
vt 0.125 0.515625
vt 0.140625 0.515625
vn -0.8660254037844387 0.5 0
vn -0.5000000000000001 -0.8660254037844388 0
vn 0.5000000000000001 0.8660254037844388 0
vn 0.8660254037844387 -0.5 0
vn -9.61481343191782e-17 5.551115123125783e-17 1
vn 9.61481343191782e-17 -5.551115123125783e-17 -1
vn 0.8660254037844387 -0.5 0
vn -0.8660254037844387 0.5 0
vn -9.61481343191782e-17 5.551115123125783e-17 1
vn 9.61481343191782e-17 -5.551115123125783e-17 -1
vn -0.5000000000000001 -0.8660254037844388 0
vn 0.5000000000000001 0.8660254037844388 0
vn 0.8660254037844387 -0.5 0
vn -0.8660254037844387 0.5 0
vn -9.61481343191782e-17 5.551115123125783e-17 1
vn 9.61481343191782e-17 -5.551115123125783e-17 -1
vn -0.5000000000000001 -0.8660254037844388 0
vn 0.5000000000000001 0.8660254037844388 0
usemtl m_4b4d6761-702b-8c59-1d68-25688fd76c49
f 23/49/13 21/50/13 22/51/13 24/52/13
f 19/53/14 17/54/14 21/55/14 23/56/14
f 22/57/15 18/58/15 20/59/15 24/60/15
f 18/61/16 17/62/16 19/63/16 20/64/16
f 21/65/17 17/66/17 18/67/17 22/68/17
f 20/69/18 19/70/18 23/71/18 24/72/18
f 26/73/19 25/74/19 27/75/19 28/76/19
f 31/77/20 29/78/20 30/79/20 32/80/20
f 29/81/21 25/82/21 26/83/21 30/84/21
f 28/85/22 27/86/22 31/87/22 32/88/22
f 27/89/23 25/90/23 29/91/23 31/92/23
f 30/93/24 26/94/24 28/95/24 32/96/24
f 34/97/25 33/98/25 35/99/25 36/100/25
f 39/101/26 37/102/26 38/103/26 40/104/26
f 37/105/27 33/106/27 34/107/27 38/108/27
f 36/109/28 35/110/28 39/111/28 40/112/28
f 35/113/29 33/114/29 37/115/29 39/116/29
f 38/117/30 34/118/30 36/119/30 40/120/30
o mesh
v -0.2770632938682637 0.34487182452694515 0.46875
v -0.5270632938682637 0.7778845264191645 0.46875
v -0.2770632938682637 0.34487182452694515 0.40625
v -0.5270632938682637 0.7778845264191645 0.40625
v -0.2229367061317363 0.37612182452694515 0.46875
v -0.47293670613173633 0.8091345264191645 0.46875
v -0.2229367061317363 0.37612182452694515 0.40625
v -0.47293670613173633 0.8091345264191645 0.40625
v -0.5499398816047911 0.6925079386826372 0.46875
v -0.5811898816047911 0.7466345264191645 0.46875
v -0.5499398816047911 0.6925079386826372 0.40625
v -0.5811898816047911 0.7466345264191645 0.40625
v -0.49581329386826367 0.7237579386826372 0.46875
v -0.5270632938682637 0.7778845264191645 0.46875
v -0.49581329386826367 0.7237579386826372 0.40625
v -0.5270632938682637 0.7778845264191645 0.40625
v -0.5728164693413185 0.6071313509461097 0.46875
v -0.6040664693413185 0.6612579386826372 0.46875
v -0.5728164693413185 0.6071313509461097 0.40625
v -0.6040664693413185 0.6612579386826372 0.40625
v -0.5186898816047911 0.6383813509461097 0.46875
v -0.5499398816047911 0.6925079386826372 0.46875
v -0.5186898816047911 0.6383813509461097 0.40625
v -0.5499398816047911 0.6925079386826372 0.40625
vt 0 0.390625
vt 0.28125 0.390625
vt 0.28125 0.359375
vt 0 0.359375
vt 0.28125 0.46875
vt 0.296875 0.46875
vt 0.296875 0.453125
vt 0.28125 0.453125
vt 0.125 0.453125
vt 0.125 0.46875
vt 0.140625 0.46875
vt 0.140625 0.453125
vt 0 0.40625
vt 0 0.4375
vt 0.28125 0.4375
vt 0.28125 0.40625
vt 0.078125 0.46875
vt 0.078125 0.453125
vt 0.0625 0.453125
vt 0.0625 0.46875
vt 0.03125 0.46875
vt 0.046875 0.46875
vt 0.046875 0.453125
vt 0.03125 0.453125
vt 0.25 0.453125
vt 0.25 0.46875
vt 0.265625 0.46875
vt 0.265625 0.453125
vt 0.21875 0.46875
vt 0.234375 0.46875
vt 0.234375 0.453125
vt 0.21875 0.453125
vt 0.015625 0.46875
vt 0.015625 0.453125
vt 0 0.453125
vt 0 0.46875
vt 0.09375 0.53125
vt 0.109375 0.53125
vt 0.109375 0.515625
vt 0.09375 0.515625
vt 0.1875 0.46875
vt 0.203125 0.46875
vt 0.203125 0.453125
vt 0.1875 0.453125
vt 0.09375 0.453125
vt 0.09375 0.46875
vt 0.109375 0.46875
vt 0.109375 0.453125
vt 0.03125 0.515625
vt 0.03125 0.53125
vt 0.046875 0.53125
vt 0.046875 0.515625
vt 0.15625 0.46875
vt 0.171875 0.46875
vt 0.171875 0.453125
vt 0.15625 0.453125
vt 0.078125 0.53125
vt 0.078125 0.515625
vt 0.0625 0.515625
vt 0.0625 0.53125
vt 0 0.53125
vt 0.015625 0.53125
vt 0.015625 0.515625
vt 0 0.515625
vt 0.15625 0.53125
vt 0.171875 0.53125
vt 0.171875 0.515625
vt 0.15625 0.515625
vt 0.125 0.515625
vt 0.125 0.53125
vt 0.140625 0.53125
vt 0.140625 0.515625
vn 0.8660254037844387 0.5 0
vn 0.5000000000000001 -0.8660254037844388 0
vn -0.5000000000000001 0.8660254037844388 0
vn -0.8660254037844387 -0.5 0
vn 9.61481343191782e-17 5.551115123125783e-17 1
vn -9.61481343191782e-17 -5.551115123125783e-17 -1
vn -0.8660254037844387 -0.5 0
vn 0.8660254037844387 0.5 0
vn 9.61481343191782e-17 5.551115123125783e-17 1
vn -9.61481343191782e-17 -5.551115123125783e-17 -1
vn 0.5000000000000001 -0.8660254037844388 0
vn -0.5000000000000001 0.8660254037844388 0
vn -0.8660254037844387 -0.5 0
vn 0.8660254037844387 0.5 0
vn 9.61481343191782e-17 5.551115123125783e-17 1
vn -9.61481343191782e-17 -5.551115123125783e-17 -1
vn 0.5000000000000001 -0.8660254037844388 0
vn -0.5000000000000001 0.8660254037844388 0
usemtl m_4b4d6761-702b-8c59-1d68-25688fd76c49
f 46/121/31 45/122/31 47/123/31 48/124/31
f 45/125/32 41/126/32 43/127/32 47/128/32
f 44/129/33 42/130/33 46/131/33 48/132/33
f 43/133/34 41/134/34 42/135/34 44/136/34
f 42/137/35 41/138/35 45/139/35 46/140/35
f 47/141/36 43/142/36 44/143/36 48/144/36
f 51/145/37 49/146/37 50/147/37 52/148/37
f 54/149/38 53/150/38 55/151/38 56/152/38
f 50/153/39 49/154/39 53/155/39 54/156/39
f 55/157/40 51/158/40 52/159/40 56/160/40
f 53/161/41 49/162/41 51/163/41 55/164/41
f 52/165/42 50/166/42 54/167/42 56/168/42
f 59/169/43 57/170/43 58/171/43 60/172/43
f 62/173/44 61/174/44 63/175/44 64/176/44
f 58/177/45 57/178/45 61/179/45 62/180/45
f 63/181/46 59/182/46 60/183/46 64/184/46
f 61/185/47 57/186/47 59/187/47 63/188/47
f 60/189/48 58/190/48 62/191/48 64/192/48
o mesh
v -0.03125 0.203125 0.4958132938682637
v -0.03125 0.171875 0.4416867061317363
v -0.03125 0.09487182452694516 0.5583132938682637
v -0.03125 0.06362182452694516 0.5041867061317363
v -0.09375 0.203125 0.4958132938682637
v -0.09375 0.171875 0.4416867061317363
v -0.09375 0.09487182452694516 0.5583132938682637
v -0.09375 0.06362182452694516 0.5041867061317363
v 0.03125 0.203125 0.4958132938682637
v 0.03125 0.171875 0.4416867061317363
v 0.03125 0.09487182452694516 0.5583132938682637
v 0.03125 0.06362182452694516 0.5041867061317363
v 0.09375 0.203125 0.4958132938682637
v 0.09375 0.171875 0.4416867061317363
v 0.09375 0.09487182452694516 0.5583132938682637
v 0.09375 0.06362182452694516 0.5041867061317363
vt 0.34375 0.484375
vt 0.328125 0.484375
vt 0.328125 0.453125
vt 0.34375 0.453125
vt 0.328125 0.453125
vt 0.34375 0.453125
vt 0.34375 0.46875
vt 0.328125 0.46875
vt 0.34375 0.46875
vt 0.34375 0.484375
vt 0.328125 0.484375
vt 0.328125 0.46875
vt 0.390625 0.453125
vt 0.390625 0.484375
vt 0.375 0.484375
vt 0.375 0.453125
vt 0.390625 0.484375
vt 0.375 0.484375
vt 0.375 0.453125
vt 0.390625 0.453125
vt 0.375 0.453125
vt 0.375 0.484375
vt 0.390625 0.484375
vt 0.390625 0.453125
vt 0.328125 0.453125
vt 0.328125 0.484375
vt 0.34375 0.484375
vt 0.34375 0.453125
vt 0.34375 0.46875
vt 0.34375 0.453125
vt 0.328125 0.453125
vt 0.328125 0.46875
vt 0.328125 0.484375
vt 0.34375 0.484375
vt 0.34375 0.46875
vt 0.328125 0.46875
vt 0.375 0.484375
vt 0.390625 0.484375
vt 0.390625 0.453125
vt 0.375 0.453125
vt 0.375 0.453125
vt 0.375 0.484375
vt 0.390625 0.484375
vt 0.390625 0.453125
vt 0.390625 0.484375
vt 0.375 0.484375
vt 0.375 0.453125
vt 0.390625 0.453125
vn 1 0 0
vn 0 0.8660254037844387 -0.49999999999999994
vn 0 -0.8660254037844387 0.49999999999999994
vn 0 0.49999999999999994 0.8660254037844387
vn 0 -0.49999999999999994 -0.8660254037844387
vn -1 0 0
vn -1 0 0
vn 0 0.8660254037844387 -0.49999999999999994
vn 0 -0.8660254037844387 0.49999999999999994
vn 0 0.49999999999999994 0.8660254037844387
vn 0 -0.49999999999999994 -0.8660254037844387
vn 1 0 0
usemtl m_4b4d6761-702b-8c59-1d68-25688fd76c49
f 66/193/49 65/194/49 67/195/49 68/196/49
f 69/197/50 65/198/50 66/199/50 70/200/50
f 68/201/51 67/202/51 71/203/51 72/204/51
f 67/205/52 65/206/52 69/207/52 71/208/52
f 70/209/53 66/210/53 68/211/53 72/212/53
f 71/213/54 69/214/54 70/215/54 72/216/54
f 75/217/55 73/218/55 74/219/55 76/220/55
f 74/221/56 73/222/56 77/223/56 78/224/56
f 79/225/57 75/226/57 76/227/57 80/228/57
f 77/229/58 73/230/58 75/231/58 79/232/58
f 76/233/59 74/234/59 78/235/59 80/236/59
f 78/237/60 77/238/60 79/239/60 80/240/60